<?xml version="1.0" standalone="no"?>
<!DOCTYPE svg PUBLIC "-//W3C//DTD SVG 20010904//EN"
 "http://www.w3.org/TR/2001/REC-SVG-20010904/DTD/svg10.dtd">
<svg version="1.0" xmlns="http://www.w3.org/2000/svg"
 width="256.000000pt" height="256.000000pt" viewBox="0 0 256.000000 256.000000"
 preserveAspectRatio="xMidYMid meet">

<g transform="translate(0.000000,256.000000) scale(0.100000,-0.100000)"
fill="#0000FF" stroke="none">
<path d="M1140 2553 c-178 -29 -294 -65 -430 -133 -295 -149 -519 -402 -628
-710 -57 -164 -67 -227 -66 -435 0 -180 2 -196 32 -308 94 -357 336 -657 668
-827 154 -79 367 -133 534 -134 79 -1 102 3 135 21 118 63 157 186 98 304 -45
88 -84 108 -239 125 -200 22 -319 65 -455 165 -155 114 -259 274 -309 474 -19
77 -22 107 -17 220 6 152 24 223 95 360 38 74 65 108 147 190 81 82 117 109
190 147 109 57 212 86 325 94 123 8 178 26 222 71 90 92 92 222 4 316 -45 48
-100 67 -196 65 -47 0 -96 -3 -110 -5z"/>
<path d="M1879 2243 c-57 -60 -228 -236 -379 -393 -151 -157 -333 -345 -405
-418 -71 -74 -130 -140 -130 -148 0 -12 124 -144 544 -579 211 -219 474 -485
479 -485 3 0 61 53 130 117 68 65 139 130 156 145 l31 27 -382 383 c-211 211
-383 388 -383 393 0 5 171 181 381 391 l380 380 -133 124 c-73 68 -145 134
-159 147 l-25 23 -105 -107z"/>
</g>
</svg>
