<?xml version="1.0" encoding="utf-8"?>
<!-- Generator: Adobe Illustrator 22.1.0, SVG Export Plug-In . SVG Version: 6.00 Build 0)  -->
<svg version="1.1" id="Слой_1" xmlns="http://www.w3.org/2000/svg" xmlns:xlink="http://www.w3.org/1999/xlink" x="0px" y="0px"
	 viewBox="0 0 289.8 53.3" style="enable-background:new 0 0 289.8 53.3;" xml:space="preserve">
<style type="text/css">
	.st0{fill:#006072;}
</style>
<g>
	<path class="st0" d="M156.6,45.4l-10.9-9.9c-0.5-0.5-0.5-1.3,0.1-1.7l13-9.4l4.4-3.1c0.6-0.4,0.5-0.8-0.2-0.8h-0.8H155
		c-0.7,0-1.8,0.3-2.5,0.7l-14.5,9.6c-0.6,0.4-1.2,0.8-1.3,0.9c-0.1,0.1-0.2-0.5-0.2-1.2l0-8.6c0-0.7-0.6-1.3-1.3-1.3l-4,0
		c-0.7,0-1.3,0.6-1.3,1.3l0,12.7c0,0.7,0,1.6,0,2c0,0.3,0,1.2,0,1.9l0,6.8c0,0.7-0.2,1.3-0.4,1.3c-0.2,0-0.6-0.5-1-1.2l-12.3-23.6
		c-0.3-0.7-1.2-1.2-2-1.2h-3.1c-0.7,0-1.7,0.5-2,1.1l-9.8,15.8c-0.2,0.4-6.2,10-7.4,9.4c3.1-4.8,2.8-10.9,2.8-11.4
		c0-14.1-7.5-15-7.5-15c-0.7-0.1-1.4-0.2-1.4-0.2c0,0-0.1,0-0.2,0c0,0-0.7,0-1.4,0H65.4c-0.7,0-1.3,0.6-1.3,1.3v4
		c0,0.7,0.6,1.3,1.3,1.3h18.5c0.7,0,1.8,0.4,2.3,0.8c0.5,0.4,0.9,3.9,0.2,3.9H72c-0.7,0-1.3,0.6-1.3,1.3v4c0,0.7,0.6,1.3,1.3,1.3
		h14.4c0.7,0,1.1,0.5,0.7,1.2l-3.2,5.9c-0.6,0.4-1.4,0.7-1.7,0.7c-0.3,0-1.2,0-1.9,0H44.2c-3.2,3.1-7.1,5.4-11.4,6.7h4.3h43.3
		c0.7,0,1.8,0,2.3,0c0.5,0,1.1,0,1.3,0c0.2,0,0.9,0,1.7,0h4.8c0.7,0,5.8,0,6.4,0c0.5,0,1.2-0.4,1.4-0.8c0.3-0.4,13.8-20.9,13.8-20.9
		c0.4-0.6,1-0.6,1.4,0.1l10.3,18.9c0.4,0.7,0.9,1.5,1.1,2c0.3,0.4,0.9,0.8,1.4,0.8c0.5,0,1.6,0,2.3,0h3.3c0.7,0,2,0,2.7,0h0.7
		c0.7,0,1.3-0.6,1.3-1.3v-0.7c0-0.7,0-1.9,0-2.7l0-7.3c0-0.7,0.5-1.7,1.1-2.1l0.1,0c0.6-0.4,1.6-0.3,2.1,0.2l14.1,13
		c0.5,0.5,1.6,0.9,2.3,0.9h5.8h1.7c0.7,0,0.9-0.4,0.3-0.9L156.6,45.4z"/>
	<path class="st0" d="M288.5,46.6h-39.3c-0.7,0-1.6-0.5-1.9-1.2l-10.7-23.6c-0.3-0.7-1.2-1.2-1.9-1.2h-2.1c-0.7,0-1.6,0.5-2,1.2
		l-9.8,19.2c-0.3,0.7-0.8,0.6-1.1-0.1l-7.6-19.1c-0.3-0.7-1.1-1.2-1.8-1.2h-2c-0.7,0-1.6,0.5-2,1.2l-13.8,24.8
		c-0.4,0.6-0.8,1.3-0.9,1.3c-0.1,0.1,0-0.4,0.2-1.1c0,0,2-5.6,2-10.2c0-9.5-6.5-14.4-6.5-14.4c-0.6-0.4-1.3-1-1.5-1.1
		c-0.2-0.2-0.7-0.3-1-0.3c-0.3,0-1.1,0-1.9,0h-12c-0.7,0-1.6,0.1-2,0.2c-0.3,0.1-1,0.3-1.6,0.6c-0.1,0-0.2,0.1-0.3,0.1
		c0,0-3.1,1.5-5.4,5.4c-1.5,2.5-2.7,6-2.7,10.7c0,2,0.3,3.8,0.9,5.4c2.2,6.5,7.7,9.3,7.7,9.3c0.3,0.1,0.5,0.3,0.7,0.4
		c0.3,0.2,0.6,0.3,0.6,0.3c0.1,0,0.3,0,0.4,0c0.1,0,0.8,0,1.5,0h12c0.7,0,2,0,2.7,0l1.9,0c0.7,0,2,0,2.7,0h4.9c0.7,0,1.6-0.5,2-1.2
		l10.9-19.4c0.4-0.6,0.9-0.6,1.1,0.1l7.4,19.3c0.3,0.7,1.1,1.3,1.8,1.3h3.7c0.7,0,1.6-0.5,1.9-1.2l9.2-19.4c0.3-0.7,0.8-0.7,1.1,0
		l8,17.4c0.3,0.7,0.8,1.7,1,2.2c0.2,0.5,0.9,1,1.5,1c0.6,0,1.7,0,2.4,0h41.4c0.7,0,1.3-0.6,1.3-1.3v-4
		C289.8,47.2,289.2,46.6,288.5,46.6z M185,44.4c-0.5,0.5-1.5,1-2.3,1h-11.5c-0.7,0-1.9-0.3-2.5-0.6c0,0-2.7-1.3-2.7-6.9
		c0-5.8,3.3-8.4,3.3-8.4c0.6-0.5,1.7-0.8,2.4-0.8h9.8c0.7,0,1.8,0.5,2.2,1c0,0,2.8,3.1,2.8,7C186.7,42.6,185,44.4,185,44.4z"/>
	<polygon class="st0" points="61.5,3.9 64,3.9 64,2.6 60.3,2.6 60.3,11.4 61.5,11.4 	"/>
	<path class="st0" d="M71.5,7.8H72c0.5,0,1.2-0.1,1.8-0.7c0.4-0.4,0.7-1,0.7-1.9c0-0.6-0.2-1.5-0.9-2.1c-0.6-0.4-1.1-0.5-1.6-0.5
		h-1.6v8.8h1.1V7.8z M71.5,3.9h0.5c0.4,0,1.4,0.1,1.4,1.3c0,1.2-0.9,1.4-1.4,1.4h-0.5V3.9z"/>
	<polygon class="st0" points="81.8,11.4 82.9,11.4 86.3,2.6 85.1,2.6 83.4,7.2 81.5,2.6 80.1,2.6 82.8,8.8 	"/>
	<polygon class="st0" points="93.6,3.9 96.8,3.9 96.8,11.4 97.9,11.4 97.9,2.6 92.5,2.6 92.5,11.4 93.6,11.4 	"/>
	<polygon class="st0" points="106,3.9 109.2,3.9 109.2,11.4 110.3,11.4 110.3,2.6 104.9,2.6 104.9,11.4 106,11.4 	"/>
	<path class="st0" d="M118.6,9.3h3.1l0.8,2.1h1.2l-3.5-9.3l-3.7,9.3h1.2L118.6,9.3z M120.2,5.1l1.1,3H119L120.2,5.1z"/>
	<polygon class="st0" points="146.5,7.2 149.4,11.4 150.9,11.4 147.5,6.6 150.9,2.6 149.4,2.6 146.5,6.1 146.5,2.6 145.4,2.6 
		145.4,11.4 146.5,11.4 	"/>
	<path class="st0" d="M160.3,11.6c2.2,0,3.8-2,3.8-4.5c0-2.6-1.6-4.6-3.8-4.6c-2.2,0-3.9,2-3.9,4.6C156.5,9.6,158.1,11.6,160.3,11.6
		z M160.3,3.7c1.6,0,2.7,1.4,2.7,3.3c0,1.9-1.1,3.3-2.7,3.3c-1.6,0-2.7-1.4-2.7-3.3C157.7,5.1,158.8,3.7,160.3,3.7z"/>
	<polygon class="st0" points="172.2,6.1 174.4,11.8 176.5,6.1 177.3,11.4 178.4,11.4 177,2 174.4,8.8 171.9,2 170.3,11.4 
		171.5,11.4 	"/>
	<polygon class="st0" points="186.3,3.9 189.5,3.9 189.5,11.4 190.6,11.4 190.6,2.6 185.2,2.6 185.2,11.4 186.3,11.4 	"/>
	<path class="st0" d="M198.9,9.3h3.1l0.8,2.1h1.2l-3.5-9.3l-3.7,9.3h1.2L198.9,9.3z M200.4,5.1l1.1,3h-2.2L200.4,5.1z"/>
	<polygon class="st0" points="211.3,7.3 214.5,7.3 214.5,11.4 215.6,11.4 215.6,2.6 214.5,2.6 214.5,6.1 211.3,6.1 211.3,2.6 
		210.2,2.6 210.2,11.4 211.3,11.4 	"/>
	<polygon class="st0" points="227.6,11.4 228.7,11.4 228.7,2.3 223.7,8.5 223.7,2.6 222.6,2.6 222.6,11.8 227.6,5.5 	"/>
	<path class="st0" d="M238.8,1.8c0.7,0,1.5-0.4,1.8-1.3L239.7,0c-0.1,0.5-0.5,0.7-0.9,0.7c-0.4,0-0.8-0.3-0.9-0.7L237,0.5
		C237.3,1.4,238.1,1.8,238.8,1.8z"/>
	<polygon class="st0" points="240.7,11.4 241.9,11.4 241.9,2.3 236.9,8.5 236.9,2.6 235.7,2.6 235.7,11.8 240.7,5.5 	"/>
	<path class="st0" d="M43.9,42.6c3.6-4.3,5.8-9.9,5.8-16c0-13.7-11.1-24.9-24.9-24.9C11.8,1.8,1.1,11.8,0.1,24.6H2
		C3,13,12.7,3.7,24.7,3.6c12.7-0.1,23.1,10.1,23.2,22.8l0,0.5l-3.5,0c-0.1,6.5-3.4,12.3-8.4,15.7c-1.8,1.2-3.7,2.1-5.8,2.7
		c-1.7,0.5-3.4,0.7-5.3,0.7c-10.7,0-19.3-8.6-19.5-19.2H0c0.1,13.6,11.2,24.6,24.9,24.6c1.2,0,2.3-0.1,3.5-0.2
		c1.5-0.2,2.9-0.5,4.3-1c2.7-0.9,5.1-2.2,7.3-3.8C41.4,45.3,42.7,44,43.9,42.6z"/>
	<path class="st0" d="M32,11.4l-2.3,3.5l0.1,0.1l0.1,0.1L30,15c0.2,0.1,0.4,0.2,0.7,0.3l0,0c0.1,0,0.1,0.1,0.2,0.1l0,0l2.3-3.4
		C32.8,11.8,32.4,11.6,32,11.4z"/>
	<path class="st0" d="M24.9,43.5c9.1,0,16.6-7.3,16.8-16.4l0-0.1v0c0,0,0,0,0,0c0-0.8,0-1.6-0.1-2.2l0,0c-0.6-5-3.4-9.3-7.3-12
		L32,16.1c0.1,0,0.1,0.1,0.2,0.1l0,0c0.4,0.3,0.9,0.6,1.3,1l0,0c0.1,0.1,0.1,0.1,0.2,0.2l0,0c0.1,0.1,0.1,0.1,0.2,0.2l0,0
		c0.1,0.1,0.1,0.1,0.2,0.2l0,0c0.5,0.5,0.9,0.9,1.2,1.5l0,0c1.1,1.6,2,3.5,2.3,5.4c0.1,0.7,0.2,1.5,0.2,2.2c0,0,0,0,0,0h0
		c0,3.3-1.3,6.3-3.4,8.6l0,0c-0.1,0.1-0.3,0.3-0.4,0.4l0,0c-0.1,0.1-0.1,0.1-0.2,0.2l0,0c-0.1,0.1-0.1,0.1-0.2,0.2l0,0
		c-0.1,0.1-0.1,0.1-0.2,0.2v0c-0.1,0.1-0.2,0.1-0.2,0.2l0,0c-0.1,0.1-0.2,0.1-0.2,0.2l0,0c-0.2,0.2-0.5,0.4-0.7,0.5l0,0
		c-0.1,0.1-0.1,0.1-0.2,0.1l0,0c-0.1,0.1-0.2,0.1-0.2,0.1l0,0c-0.1,0-0.2,0.1-0.2,0.1l0,0c-0.1,0-0.2,0.1-0.3,0.1l0,0
		c-0.1,0-0.2,0.1-0.2,0.1l0,0c-0.1,0-0.2,0.1-0.2,0.1l-0.1,0.1c-0.1,0-0.1,0.1-0.2,0.1l-0.1,0c-0.1,0-0.1,0.1-0.2,0.1l-0.1,0
		c-0.1,0-0.2,0.1-0.2,0.1l-0.1,0c-0.1,0-0.2,0.1-0.2,0.1l-0.1,0c-0.1,0-0.2,0.1-0.2,0.1l-0.1,0c-0.1,0-0.2,0-0.2,0.1
		c-0.1,0-0.2,0.1-0.3,0.1l0,0c-0.1,0-0.2,0-0.3,0.1l-0.1,0c-0.1,0-0.1,0-0.2,0l-0.1,0l0,0c-0.1,0-0.2,0-0.3,0.1v0
		c-0.1,0-0.2,0-0.3,0.1l0,0c-0.1,0-0.2,0-0.3,0l-0.1,0c-0.3,0-0.6,0.1-0.9,0.1l-0.1,0h0c-0.1,0-0.2,0-0.3,0h0c-0.1,0-0.2,0-0.3,0
		c-0.1,0-0.2,0-0.3,0c-0.1,0-0.2,0-0.3,0c-0.1,0-0.2,0-0.3,0h0c-0.1,0-0.2,0-0.3,0h0l-0.1,0c-0.3,0-0.6-0.1-0.9-0.1l-0.1,0
		c-0.1,0-0.2,0-0.3,0l0,0c-0.1,0-0.2,0-0.3-0.1v0c-0.1,0-0.2,0-0.3-0.1l0,0l-0.1,0c-0.1,0-0.1,0-0.2,0l-0.1,0c-0.1,0-0.2,0-0.3-0.1
		l0,0c-0.1,0-0.2-0.1-0.2-0.1c-0.1,0-0.2,0-0.2-0.1l0,0c-0.1,0-0.2-0.1-0.2-0.1l-0.1,0c-0.1,0-0.2-0.1-0.2-0.1l-0.1,0
		c-0.1,0-0.2-0.1-0.2-0.1l-0.1,0c-0.1,0-0.1-0.1-0.2-0.1l-0.1,0c-0.1,0-0.1-0.1-0.2-0.1l-0.1-0.1c-0.1,0-0.2-0.1-0.2-0.1l0,0
		c-0.1,0-0.2-0.1-0.2-0.1l0,0c-0.1,0-0.2-0.1-0.3-0.1l0,0c-0.1,0-0.2-0.1-0.2-0.1l0,0c-0.1,0-0.2-0.1-0.2-0.1l0,0
		c-0.1,0-0.1-0.1-0.2-0.1l-0.1,0c-0.2-0.2-0.5-0.3-0.7-0.5l0,0c-0.1-0.1-0.2-0.1-0.2-0.2l0,0c-0.1-0.1-0.2-0.1-0.2-0.2v0
		c-0.1-0.1-0.1-0.1-0.2-0.2l0,0c-0.1-0.1-0.1-0.1-0.2-0.2l0,0C16,36.1,15.9,36,15.8,36l0,0c-0.1-0.1-0.3-0.3-0.4-0.4l0,0
		c-2.1-2.3-3.4-5.3-3.4-8.6H8.1C8.2,36.1,15.7,43.5,24.9,43.5z"/>
	<path class="st0" d="M8.2,24.6h4c0.3-2,1.1-3.8,2.3-5.4l0,0c0.4-0.5,0.8-1,1.2-1.5l0,0c0.1-0.1,0.1-0.1,0.2-0.2l0,0
		c0.1-0.1,0.1-0.1,0.2-0.2l0,0c0.1-0.1,0.1-0.1,0.2-0.2l0,0c0.4-0.4,0.8-0.7,1.3-1l0,0c0.1,0,0.1-0.1,0.2-0.1l0,0
		c0.1,0,0.1-0.1,0.2-0.1l0,0c0.1,0,0.1-0.1,0.2-0.1l0.1,0c0.1,0,0.1-0.1,0.2-0.1l0,0c0.1,0,0.1-0.1,0.2-0.1l0,0
		c0.1,0,0.1-0.1,0.2-0.1l0,0c0.2-0.1,0.4-0.2,0.7-0.3l0.1-0.1l0.1-0.1c0.1,0,0.1,0,0.1-0.1c0.1,0,0.1,0,0.2-0.1l0.1,0l0.2-0.1l0.1,0
		l0.1,0l0.2-0.1l0.1,0l0.2,0l0.1,0c0.1,0,0.1,0,0.2,0l0.1,0c0.1,0,0.1,0,0.2-0.1l0.1,0l0,0c0.1,0,0.2,0,0.3-0.1l0,0
		c0.1,0,0.2,0,0.3-0.1l0.1,0l0.2,0l0.1,0l0.2,0l0.1,0l0.2,0l0.1,0l0.2,0l0.2,0l0.2,0l0.1,0c0.1,0,0.2,0,0.2,0h0.1c0.1,0,0.2,0,0.3,0
		c0.1,0,0.2,0,0.3,0h0.1c0.1,0,0.2,0,0.2,0c0,0,0.1,0,0.1,0l0.2,0l0.2,0l0.2,0l0.1,0l0.2,0l0.2,0l0.2,0l0.1,0l0.2,0l0.1,0
		c0.1,0,0.2,0,0.3,0.1l0,0c0.1,0,0.2,0,0.3,0.1l0,0l0.1,0c0.1,0,0.2,0,0.2,0.1l0.1,0c0.1,0,0.1,0,0.2,0l0.1,0l2.4-3.5
		c-1.9-0.7-3.9-1.1-6-1.1C16.3,9.8,9.2,16.3,8.2,24.6z"/>
	<path class="st0" d="M29.9,17c-0.4-0.2-0.9-0.4-1.3-0.6l-2.2,3.3c0.5,0.1,1,0.3,1.4,0.5L29.9,17z"/>
	<path class="st0" d="M32.7,34.1c1.9-2,2.9-4.3,3-7.2c0-0.1,0-0.3,0-0.4c0-3.2-1.4-5.8-3.4-7.7c-0.5-0.4-0.9-0.8-1.4-1.1l-2.1,3.1
		c0.2,0.1,0.4,0.3,0.6,0.4c1.3,1.1,2,2.3,2.2,3.7H26l-1.3,2l-1.1,1.6h8c-0.5,1.8-1.4,3.1-2.7,3.9c-1.3,0.8-2.6,1.2-4.1,1.2
		c-1.3,0-2.6-0.4-3.8-1.1l-2.1,3.2c1.8,1.1,3.9,1.8,6,1.8C28.1,37.4,30.7,36.1,32.7,34.1z"/>
	<path class="st0" d="M20,16.9c-0.6,0.3-1.3,0.8-1.5,1l2.5,2.6c1.1-0.6,2.5-0.9,3.8-0.9c0.1,0,0.1,0,0.2,0l2.3-3.5
		c-0.8-0.2-1.7-0.3-2.6-0.3C23.2,15.7,21.6,16.2,20,16.9z"/>
</g>
</svg>
